<?xml version="1.0" encoding="UTF-8"?>
<svg id="Layer_1" data-name="Layer 1" xmlns="http://www.w3.org/2000/svg" viewBox="0 0 5000 3000">
  <defs>
    <style>
      .cls-1, .cls-2, .cls-3, .cls-4 {
        stroke-width: 0px;
      }

      .cls-2, .cls-3 {
        fill: #fff;
      }

      .cls-3 {
        fill-rule: evenodd;
      }

      .cls-4 {
        fill: #fac400;
      }
    </style>
  </defs>
  <g>
    <rect class="cls-1" x=".5" y=".5" width="4999" height="2999"/>
    <path class="cls-1" d="m4999,1v2998H1V1h4998m1-1H0v3000h5000V0h0Z"/>
  </g>
  <g>
    <rect class="cls-4" x=".5" y="1000.5" width="4999" height="1999"/>
    <path class="cls-1" d="m4999,1001v1998H1V1001h4998m1-1H0v2000h5000V1000h0Z"/>
  </g>
  <polygon class="cls-3" points="4131 429.28 4359.42 429.28 4430 200.42 4500.58 429.28 4729 429.28 4544.21 570.72 4614.79 799.58 4430 658.13 4245.21 799.58 4315.79 570.72 4131 429.28 4131 429.28"/>
  <polygon class="cls-3" points="3315.67 429.03 3544.09 429.03 3614.67 200.17 3685.26 429.03 3913.67 429.03 3728.88 570.47 3799.47 799.32 3614.67 657.88 3429.88 799.32 3500.47 570.47 3315.67 429.03 3315.67 429.03"/>
  <polygon class="cls-3" points="2499.67 429.03 2728.09 429.03 2798.67 200.17 2869.26 429.03 3097.67 429.03 2912.88 570.47 2983.47 799.32 2798.67 657.88 2613.88 799.32 2684.47 570.47 2499.67 429.03 2499.67 429.03"/>
  <path class="cls-2" d="m1424.22,2454.78c0,5.56.38,9.91-.07,14.17-1.71,16.39.35,32.43,3.79,48.39,7.1,32.86,25.21,59.08,49.38,81.59,5.57,5.19,11.45,10.06,17.23,15.03,1.46,1.26,3.07,3.49,5.09,1.99,1.89-1.4-.09-3.28-.78-4.82-.97-2.2-2.08-4.35-3.25-6.45-27.18-48.92-33.38-101.06-21.49-155.08,10.86-49.29,36.01-92.07,65.48-132.38,30.88-42.24,68.79-77.76,108.36-111.59,43.31-37.02,87.23-73.33,127.75-113.51,34.16-33.87,65.81-69.72,91.51-110.56,35.42-56.29,52.55-117.91,54.55-184.15,1.64-54.13-4.92-107.76-8.96-161.55-2.63-35.06-3.47-70.12,1.79-105.09,2.61-17.34,8.75-33.71,20.53-46.09,12.25-12.88,25.35-25.4,42.72-32.54,18.62-7.64,37.43-11.67,57.45-10.01,11.22.93,22.29,2.81,33.3,5.11,2.05.43,4.7,1.08,6-1.32,1.17-2.15-.92-3.68-1.99-5.28-4.21-6.35-8.52-12.64-12.71-19.01-17.47-26.56-32.97-54.18-44.19-84.02-9.11-24.23-17-48.94-27.96-72.43-12.15-26.03-26.85-50.33-50.28-68.07-44.5-33.71-94.42-36.33-146.22-24.03-40.1,9.52-73.36,31.79-102.49,60.42-30.87,30.33-57.75,64.04-83.19,98.95-2.72,3.73-5.5,7.42-8.29,11.09-.86,1.12-1.9,2.33-3.5,1.67-1.54-.63-1.6-2.21-1.51-3.63.07-1.19.3-2.39.56-3.56,7.22-32.4-.96-61.36-20.49-87.32-21.38-28.42-51.04-45.27-83.61-57.66-40.66-15.46-82.94-25.1-125.27-34.51-35.66-7.93-71.36-15.7-106.52-25.65-58.93-16.68-114.49-42.1-169.89-67.61-80.71-37.16-154.98-85.07-226.44-137.7-34.48-25.39-68.04-51.73-99.09-81.15-38.52-36.49-73.71-76.11-107.01-117.34-37.46-46.38-73.11-94.12-106.55-143.53-34.89-51.55-63.95-106.19-89.02-163.04-5.18-11.75-10.09-23.62-15.17-35.42-.68-1.58-.98-4.04-3.16-3.91-2.83.16-2.11,2.96-2.47,4.76-.99,4.92-1.78,9.88-2.72,14.8-7.59,39.66-13.54,79.62-14.89,119.96-1.26,37.48-1.06,75.02,1.83,112.51,4.11,53.34,15.38,105.16,32.01,155.88,6.76,20.61,14.72,40.76,24.45,60.19,3.32,6.62,2.72,8.08-3.59,12.27-1.34.89-2.68,1.77-4.08,2.55-15.21,8.52-27.22,20.62-37.01,34.74-22,31.76-28.82,67.27-22.96,105,8.97,57.73,35.64,106.97,75.11,149.41,27.9,30,60.97,53.91,94.33,77.33,8.8,6.18,9.23,6.41,5.23,16.54-5.76,14.61-10.43,29.57-12.64,45.12-4.95,34.83.74,68.03,16.83,99.29,23.65,45.95,58.07,81.79,102.48,108.13,3.97,2.35,7.83,4.89,11.73,7.34,3.1,1.95,4.69,4.71,5.08,8.4,1.05,10.18,2.51,20.32,3.38,30.51,2.78,32.52,12.58,63.06,28.06,91.46,25.6,47,60.63,86.39,103.24,118.51,41.86,31.56,88.35,54.23,139,68.67,40.19,11.45,80.69,19.74,122.61,19.31,17.45-.18,34.88-1.41,52.18-3.95,1.87-.27,4.36-1.24,5.35,1.18.86,2.09-1.36,3.13-2.75,4.13-10.72,7.71-18.11,18.05-23.88,29.73-14.9,30.13-16.01,60.17,1.17,89.77,12.42,21.4,31.92,34.13,54.73,41.91,29.73,10.14,59.87,10.14,90.08,1.86,1.74-.48,3.48-1,5.25-1.34,1.78-.34,3.79-.69,5.02.99,1.36,1.86-.12,3.41-1.15,4.86-6.89,9.66-14.44,18.8-22.97,27.03-22.75,21.95-49.41,38.35-77.15,53.02-42.14,22.28-86.4,39.73-130.92,56.52-43.38,16.36-87.21,31.46-131.41,45.49-58,18.41-116.53,34.83-176.23,46.82-36.21,7.27-72.55,13.82-109.03,19.56-2.41.38-6.36-.3-6.77,2.56-.48,3.33,3.66,3.83,6.06,4.76,10.48,4.04,21.01,7.99,31.68,11.51,37.85,12.49,76.71,14.27,116.07,10.64,2.29-.21,5.67-1.64,6.67.77,1.21,2.93-2.53,4-4.4,5.5-12.79,10.2-14.47,26.15-4.03,38.81,4.14,5.02,9.06,9.07,14.57,12.47,14.68,9.06,31.16,11.29,47.87,12.35,23.9,1.51,46.68-3.5,68.79-12.26,2.07-.82,4.8-2.74,6.55-.15,1.44,2.13-.98,4.02-2.14,5.81-20.47,31.53-6.9,70.18,28.87,81.67,21.12,6.78,41.97,5.43,62.33-3.27,8.46-3.62,9.23-3.45,11.77,5.17,4.23,14.34,12.92,24.67,26.66,30.77,18.16,8.06,36.45,6.29,54.67.56,21.61-6.79,40.45-18.4,57.1-33.68,1.86-1.71,3.72-4.55,6.51-3.58,3.32,1.15,1.6,4.52,1.59,6.92-.06,25.06,17.69,45.72,42.54,48.89,21.33,2.72,40.05-4.87,57.11-16.52,21.71-14.83,38.68-34.84,56.32-54.05,2.23-2.43,4.26-7.89,7.82-5.46,2.52,1.72-1.48,6-3.11,8.79-12.46,21.35-24.44,42.88-31.79,66.7-6.42,20.82-5.47,40.84,5.72,59.83,10.39,17.64,34.36,25.88,53.66,18.92,18.1-6.53,29.56-19.72,36.33-37.05,8.4-21.51,13.81-44.02,20.82-66.01.96-3,1.3-6.28,4.43-10.03Z"/>
</svg>