<?xml version="1.0" encoding="UTF-8"?>
<svg id="Layer_1" data-name="Layer 1" xmlns="http://www.w3.org/2000/svg" viewBox="0 0 5000 3000">
  <defs>
    <style>
      .cls-1, .cls-2, .cls-3, .cls-4 {
        stroke-width: 0px;
      }

      .cls-2, .cls-3 {
        fill: #fff;
      }

      .cls-3 {
        fill-rule: evenodd;
      }

      .cls-4 {
        fill: #fac400;
      }
    </style>
  </defs>
  <g>
    <rect class="cls-1" x=".5" y=".5" width="4999" height="2999"/>
    <path class="cls-1" d="m4999,1v2998H1V1h4998m1-1H0v3000h5000V0h0Z"/>
  </g>
  <g>
    <rect class="cls-4" x=".5" y="1146.5" width="4999" height="1853"/>
    <path class="cls-1" d="m4999,1147v1852H1v-1852h4998m1-1H0v1854h5000v-1854h0Z"/>
  </g>
  <polygon class="cls-3" points="4130 502.18 4359.18 502.18 4430 273 4500.82 502.18 4730 502.18 4544.59 643.82 4615.41 873 4430 731.36 4244.59 873 4315.41 643.82 4130 502.18 4130 502.18"/>
  <polygon class="cls-3" points="3314.93 502.45 3544.11 502.45 3614.93 273.27 3685.75 502.45 3914.93 502.45 3729.52 644.09 3800.34 873.27 3614.93 731.63 3429.52 873.27 3500.34 644.09 3314.93 502.45 3314.93 502.45"/>
  <polygon class="cls-3" points="2499.71 502.45 2728.89 502.45 2799.71 273.27 2870.53 502.45 3099.71 502.45 2914.3 644.09 2985.12 873.27 2799.71 731.63 2614.3 873.27 2685.12 644.09 2499.71 502.45 2499.71 502.45"/>
  <path class="cls-2" d="m1200.82,2597.01c-1.1,5.71-1.56,10.25-2.87,14.54-5.02,16.49-6.05,33.38-5.62,50.46.88,35.17,14.52,65.72,35.18,93.67,4.76,6.45,9.91,12.62,14.93,18.88,1.27,1.58,2.5,4.2,4.9,3.06,2.24-1.06.55-3.38.15-5.1-.58-2.45-1.3-4.88-2.1-7.27-18.57-55.68-14.72-110.47,8.32-163.58,21.02-48.46,55.6-87.37,94.19-122.88,40.43-37.22,86.83-66.13,134.63-92.97,52.31-29.37,105.11-57.88,155.15-91.05,42.18-27.96,82.15-58.46,116.91-95.27,47.92-50.73,77.89-110.6,93.06-178.24,12.4-55.27,16.18-111.66,22.61-167.72,4.2-36.54,10.25-72.72,22.62-107.59,6.14-17.29,15.75-32.87,30.44-43.23,15.27-10.78,31.35-21.03,50.81-24.88,20.85-4.13,41.19-4.51,61.67,1.2,11.47,3.2,22.6,7.34,33.59,11.91,2.04.85,4.66,2.05,6.5-.15,1.64-1.98-.23-3.96-1.02-5.82-3.12-7.37-6.36-14.68-9.45-22.06-12.91-30.77-23.55-62.23-29.31-95.13-4.68-26.7-7.99-53.67-14.74-79.98-7.48-29.17-17.95-57.06-38.79-79.97-39.57-43.51-90.92-56.18-147.16-53.9-43.55,1.77-82.49,17.99-118.41,41.57-38.06,24.99-72.65,54.24-105.98,85.01-3.56,3.29-7.18,6.52-10.81,9.73-1.11.98-2.44,2.01-3.97,1.02-1.48-.96-1.22-2.59-.85-4.03.31-1.21.78-2.4,1.28-3.55,13.9-31.84,11.12-63.21-4.04-93.78-16.6-33.46-44.08-56.7-75.47-75.93-39.19-24.01-81.21-42.35-123.32-60.48-35.48-15.27-71.04-30.39-105.6-47.63-57.93-28.91-110.63-66.12-163.14-103.39-76.51-54.3-144.2-118.35-208.05-186.68-30.8-32.97-60.46-66.73-86.92-103.15-32.81-45.18-61.54-92.9-87.99-141.91-29.75-55.12-57.36-111.28-82.34-168.72-26.06-59.92-45.46-121.85-60.27-185.25-3.06-13.11-5.82-26.28-8.76-39.41-.4-1.76-.22-4.34-2.51-4.65-2.97-.4-2.78,2.62-3.51,4.4-2,4.86-3.8,9.79-5.75,14.66-15.72,39.22-29.79,79.07-39.17,120.24-8.71,38.24-15.92,76.84-20.32,115.92-6.27,55.61-4.8,111.08,2.46,166.5,2.95,22.52,7.24,44.81,13.51,66.71,2.14,7.47,1.23,8.84-6.16,11.88-1.57.64-3.14,1.28-4.75,1.81-17.49,5.71-32.35,15.74-45.31,28.29-29.13,28.22-43.24,63.34-44.6,103.26-2.08,61.09,15.9,116.99,48.51,168.47,23.05,36.39,52.69,67.55,82.73,98.28,7.92,8.1,8.32,8.42,2.16,18.04-8.87,13.86-16.68,28.29-22.05,43.82-12.03,34.79-12.67,70.03-2.13,105.34,15.49,51.92,44.17,95.61,85.1,131.54,3.66,3.21,7.16,6.59,10.74,9.89,2.84,2.62,3.95,5.78,3.61,9.65-.92,10.66-1.41,21.37-2.51,32.02-3.53,33.96.62,67.28,11.08,99.55,17.31,53.39,45.92,100.85,83.84,142.36,37.25,40.78,81.08,73.36,130.84,98.31,39.49,19.8,79.93,36.4,123.57,44.33,18.17,3.3,36.51,5.52,54.99,6.37,2,.09,4.78-.4,5.33,2.28.48,2.32-2.03,2.94-3.68,3.69-12.66,5.77-22.38,14.92-30.68,25.76-21.43,27.97-28.52,58.61-16.52,92.44,8.67,24.46,26.42,41.44,48.58,53.98,28.88,16.35,60.19,22.38,93.22,19.91,1.9-.14,3.81-.33,5.72-.32,1.91,0,4.07.05,5.02,2.02,1.05,2.18-.8,3.48-2.16,4.76-9.07,8.55-18.71,16.43-29.2,23.17-27.97,18-58.91,29.52-90.63,39.04-48.18,14.46-97.61,23.54-147.18,31.89-48.3,8.13-96.82,14.88-145.51,20.46-63.9,7.32-127.94,12.49-192.33,12.87-39.05.23-78.1-.3-117.14-1.7-2.58-.09-6.55-1.58-7.54,1.28-1.15,3.33,3.05,4.67,5.35,6.09,10.09,6.24,20.25,12.41,30.63,18.15,36.85,20.4,76.88,29.99,118.48,34.12,2.42.24,6.21-.55,6.77,2.12.68,3.26-3.42,3.6-5.66,4.77-15.3,7.92-20.19,23.97-11.86,39.05,3.31,5.98,7.63,11.13,12.67,15.72,13.46,12.24,30.15,17.83,47.3,22.26,24.53,6.33,49.19,5.73,73.89,1.15,2.31-.43,5.53-1.85,6.83,1.15,1.08,2.48-1.82,3.94-3.37,5.54-27.5,28.29-21.04,70.71,13.85,89.65,20.6,11.18,42.53,13.96,65.4,9.09,9.51-2.03,10.27-1.7,11.21,7.66,1.56,15.57,8.55,27.93,21.62,36.93,17.28,11.91,36.62,13.74,56.69,11.5,23.79-2.66,45.66-10.82,65.98-23.19,2.27-1.38,4.77-3.93,7.47-2.38,3.22,1.85.77,4.96.29,7.43-5.01,25.72,9.34,50.5,34.54,58.72,21.62,7.06,42.57,3,62.59-5.56,25.49-10.9,47.07-28.05,69.19-44.26,2.79-2.05,5.99-7.26,9.2-4.04,2.27,2.27-2.72,5.87-4.96,8.41-17.16,19.44-33.86,39.16-46.2,62.15-10.79,20.1-13.75,40.85-5.87,62.59,7.31,20.19,30.59,33.45,52.01,30.16,20.1-3.09,34.61-14.35,45.06-30.8,12.98-20.42,23.05-42.46,34.67-63.63,1.59-2.89,2.59-6.19,6.59-9.42Z"/>
</svg>